<?xml version="1.0" encoding="UTF-8"?>
<!DOCTYPE svg PUBLIC "-//W3C//DTD SVG 1.1//EN" "http://www.w3.org/Graphics/SVG/1.1/DTD/svg11.dtd">
<svg version="1.1" xmlns="http://www.w3.org/2000/svg" xmlns:xlink="http://www.w3.org/1999/xlink" x="0" y="0" width="360" height="64" viewBox="0, 0, 360, 64">
  <g id="Layer_1" transform="translate(-0, 0)">
    <path d="M0,-0 L360,-0 L360,64 L0,64 L0,-0 z" fill="#2C3E50"/>
    <path d="M170.698,-0 L360,-0 L360,64 L241.862,64 L170.698,-0 z" fill="#E74C3C"/>
    <path d="M36.396,47.225 L36.396,37.202 L35.091,37.202 L35.091,47.225 z M28.397,41.477 C28.397,43.58 29.354,45.043 30.985,45.043 C32.627,45.043 33.584,43.569 33.584,41.477 C33.584,39.362 32.627,37.888 30.985,37.888 C29.354,37.888 28.397,39.362 28.397,41.477 z M32.324,41.477 C32.324,43.052 31.761,43.985 30.985,43.985 C30.231,43.985 29.68,43.052 29.68,41.477 C29.68,39.89 30.231,38.945 30.985,38.945 C31.761,38.945 32.324,39.89 32.324,41.477 z" fill="#FFFFFF"/>
    <path d="M42.257,42.86 L42.257,40.869 L43.157,40.869 L43.157,44.357 L44.406,44.357 L44.406,37.382 L43.157,37.382 L43.157,39.8 L42.257,39.8 L42.257,37.944 L40.941,37.944 L40.941,39.44 L39.524,39.44 L39.524,37.967 L38.196,37.967 L38.196,42.86 z M46.611,46.978 L46.611,45.932 L40.84,45.932 L40.84,43.76 L39.535,43.76 L39.535,46.978 z M46.364,44.627 L46.364,37.202 L45.115,37.202 L45.115,44.627 z M40.941,41.825 L39.524,41.825 L39.524,40.453 L40.941,40.453 z" fill="#FFFFFF"/>
    <path d="M55.262,41.184 L55.262,40.149 L50.042,40.149 L50.042,39.024 L55.499,39.024 L55.499,37.989 L48.737,37.989 L48.737,43.31 L55.6,43.31 L55.6,42.275 L50.042,42.275 L50.042,41.184 z M56.635,44.93 L47.579,44.93 L47.579,45.965 L56.635,45.965 z" fill="#FFFFFF"/>
    <path d="M65.264,42.613 L65.264,41.567 L59.796,41.567 L59.796,38.979 L65.207,38.979 L65.207,37.933 L58.48,37.933 L58.48,42.613 L61.157,42.613 L61.157,44.93 L57.31,44.93 L57.31,45.965 L66.366,45.965 L66.366,44.93 L62.474,44.93 L62.474,42.613 z" fill="#FFFFFF"/>
    <path d="M71.17,39.125 C71.17,40.082 72.194,40.768 74.016,40.903 L74.016,41.443 L70.169,41.443 L70.169,42.489 L79.225,42.489 L79.225,41.443 L75.332,41.443 L75.332,40.903 C77.2,40.779 78.257,40.104 78.257,39.125 C78.257,38.057 76.964,37.337 74.714,37.337 C72.452,37.337 71.17,38.057 71.17,39.125 z M78.392,47.18 L78.392,46.112 L72.632,46.112 L72.632,45.56 L78.032,45.56 L78.032,43.04 L71.26,43.04 L71.26,44.075 L76.727,44.075 L76.727,44.638 L71.327,44.638 L71.327,47.18 z M72.531,39.125 C72.531,38.675 73.33,38.315 74.714,38.315 C76.097,38.315 76.907,38.675 76.907,39.125 C76.907,39.575 76.097,39.935 74.714,39.935 C73.33,39.935 72.531,39.575 72.531,39.125 z" fill="#FFFFFF"/>
    <path d="M86.875,37.202 L86.875,47.225 L88.18,47.225 L88.18,37.202 z M85.997,43.558 C84.715,43.794 82.724,43.85 81.767,43.85 L81.767,41.814 L85.041,41.814 L85.041,38.057 L80.417,38.057 L80.417,39.103 L83.714,39.103 L83.714,40.768 L80.462,40.768 L80.462,44.93 L81.52,44.93 C83.219,44.93 85.086,44.818 86.144,44.604 z" fill="#FFFFFF"/>
    <path d="M98.687,45.819 L98.687,44.773 L94.199,44.773 L94.199,41.398 L92.882,41.398 L92.882,44.773 L89.631,44.773 L89.631,45.819 z M97.652,38.079 L90.599,38.079 L90.599,39.137 L96.325,39.137 C96.359,40.52 96.28,42.444 95.965,43.603 L97.225,43.76 C97.574,42.433 97.697,40.599 97.652,38.079 z" fill="#FFFFFF"/>
    <path d="M107.586,38.225 L103.019,38.225 L103.019,39.317 L106.191,39.317 C106.157,39.733 106.101,40.149 105.977,40.543 C104.841,40.633 103.671,40.712 102.535,40.79 C102.591,41.173 102.647,41.544 102.715,41.927 L105.561,41.623 C104.886,42.928 103.739,43.963 102.332,44.604 L103.086,45.605 C106.067,44.053 107.575,41.589 107.586,38.225 z M110.781,47.225 L110.781,37.202 L109.465,37.202 L109.465,41.094 L107.564,41.094 L107.564,42.197 L109.465,42.197 L109.465,47.225 z" fill="#FFFFFF"/>
    <path d="M118.487,44.514 L118.386,43.479 C118.004,43.558 117.52,43.603 116.935,43.648 C117.059,42.388 117.182,41.128 117.295,39.868 L116.035,39.722 C115.967,41.06 115.877,42.388 115.799,43.727 C115.45,43.738 115.067,43.76 114.674,43.76 L114.46,39.744 C114.032,39.8 113.594,39.868 113.166,39.902 L113.481,43.794 L112.12,43.794 C112.176,44.165 112.232,44.514 112.3,44.885 C114.527,44.885 117.295,44.717 118.487,44.514 z M120.512,47.225 L120.512,37.202 L119.196,37.202 L119.196,47.225 z M118.049,39.103 L118.049,38.068 L112.457,38.068 L112.457,39.103 z" fill="#FFFFFF"/>
    <path d="M129.906,42.613 L129.906,41.567 L124.439,41.567 L124.439,38.979 L129.85,38.979 L129.85,37.933 L123.122,37.933 L123.122,42.613 L125.8,42.613 L125.8,44.93 L121.952,44.93 L121.952,45.965 L131.009,45.965 L131.009,44.93 L127.116,44.93 L127.116,42.613 z" fill="#FFFFFF"/>
    <path d="M142.652,37.202 L141.314,37.202 L141.314,47.225 L142.652,47.225 L142.652,42.14 L144.014,42.14 L144.014,41.049 L142.652,41.049 z M138.501,43.592 L136.364,43.592 L136.364,39.182 L138.501,39.182 z M139.817,38.124 L135.059,38.124 L135.059,44.638 L139.817,44.638 z" fill="#FFFFFF"/>
    <path d="M152.834,47.225 L152.834,37.202 L151.517,37.202 L151.517,47.225 z M150.764,43.963 C149.245,42.984 148.446,41.488 148.446,39.508 L148.446,38.045 L147.085,38.045 L147.085,39.575 C147.085,41.567 146.219,43.153 144.599,44.199 L145.397,45.167 C146.432,44.604 147.467,43.333 147.794,42.185 C148.131,43.232 149.177,44.447 149.999,44.953 z" fill="#FFFFFF"/>
    <path d="M163.33,45.819 L163.33,44.773 L158.841,44.773 L158.841,41.398 L157.525,41.398 L157.525,44.773 L154.274,44.773 L154.274,45.819 z M162.295,38.079 L155.241,38.079 L155.241,39.137 L160.967,39.137 C161.001,40.52 160.922,42.444 160.607,43.603 L161.867,43.76 C162.216,42.433 162.34,40.599 162.295,38.079 z" fill="#FFFFFF"/>
    <path d="M32.507,16.249 L32.507,10.903 L31.841,10.903 L31.841,13.003 L31.397,13.003 L31.397,10.999 L30.743,10.999 L30.743,16.003 L31.397,16.003 L31.397,13.567 L31.841,13.567 L31.841,16.249 z M30.617,14.449 C29.969,14.065 29.609,13.249 29.609,12.217 L29.609,11.419 L28.931,11.419 L28.931,12.223 C28.931,13.363 28.493,14.167 27.821,14.605 L28.223,15.085 C28.727,14.785 29.129,14.233 29.273,13.675 C29.417,14.203 29.873,14.731 30.215,14.947 z" fill="#FFFFFF"/>
    <path d="M37.523,14.191 L37.523,13.627 L34.463,13.627 L34.463,12.979 L37.367,12.979 L37.367,11.245 L33.737,11.245 L33.737,11.803 L36.671,11.803 L36.671,12.421 L33.767,12.421 L33.767,14.191 L35.201,14.191 L35.201,15.025 L33.149,15.025 L33.149,15.583 L37.979,15.583 L37.979,15.025 L35.903,15.025 L35.903,14.191 z" fill="#FFFFFF"/>
    <path d="M42.623,12.127 C42.623,11.515 41.927,11.059 40.751,11.059 C39.581,11.059 38.897,11.515 38.897,12.127 C38.897,12.751 39.581,13.207 40.757,13.207 C41.927,13.207 42.623,12.751 42.623,12.127 z M41.153,15.073 L41.153,14.107 L43.169,14.107 L43.169,13.549 L38.339,13.549 L38.339,14.107 L40.457,14.107 L40.457,15.073 z M42.611,16.105 L42.611,15.553 L39.653,15.553 L39.653,14.581 L38.957,14.581 L38.957,16.105 z M41.897,12.139 C41.897,12.451 41.459,12.661 40.751,12.661 C40.061,12.661 39.617,12.451 39.617,12.139 C39.617,11.809 40.061,11.593 40.751,11.593 C41.459,11.593 41.897,11.809 41.897,12.139 z" fill="#FFFFFF"/>
    <path d="M49.613,16.249 L49.613,10.903 L48.917,10.903 L48.917,16.249 z M45.347,13.183 C45.347,14.305 45.857,15.085 46.727,15.085 C47.603,15.085 48.113,14.299 48.113,13.183 C48.113,12.055 47.603,11.269 46.727,11.269 C45.857,11.269 45.347,12.055 45.347,13.183 z M47.441,13.183 C47.441,14.023 47.141,14.521 46.727,14.521 C46.325,14.521 46.031,14.023 46.031,13.183 C46.031,12.337 46.325,11.833 46.727,11.833 C47.141,11.833 47.441,12.337 47.441,13.183 z" fill="#FFFFFF"/>
    <path d="M52.739,13.921 L52.739,12.859 L53.219,12.859 L53.219,14.719 L53.885,14.719 L53.885,10.999 L53.219,10.999 L53.219,12.289 L52.739,12.289 L52.739,11.299 L52.037,11.299 L52.037,12.097 L51.281,12.097 L51.281,11.311 L50.573,11.311 L50.573,13.921 z M55.061,16.117 L55.061,15.559 L51.983,15.559 L51.983,14.401 L51.287,14.401 L51.287,16.117 z M54.929,14.863 L54.929,10.903 L54.263,10.903 L54.263,14.863 z M52.037,13.369 L51.281,13.369 L51.281,12.637 L52.037,12.637 z" fill="#FFFFFF"/>
    <path d="M59.675,13.027 L59.675,12.475 L56.891,12.475 L56.891,11.875 L59.801,11.875 L59.801,11.323 L56.195,11.323 L56.195,14.161 L59.855,14.161 L59.855,13.609 L56.891,13.609 L56.891,13.027 z M60.407,15.025 L55.577,15.025 L55.577,15.577 L60.407,15.577 z" fill="#FFFFFF"/>
    <path d="M65.717,13.537 L65.717,12.955 L64.943,12.955 L64.943,10.903 L64.247,10.903 L64.247,16.249 L64.943,16.249 L64.943,13.537 z M63.539,11.449 L61.043,11.449 L61.043,12.031 L62.777,12.031 C62.681,13.099 61.883,14.221 60.719,14.755 L61.145,15.283 C62.783,14.395 63.491,13.063 63.539,11.449 z" fill="#FFFFFF"/>
    <path d="M70.631,12.481 C70.631,11.731 70.001,11.191 69.209,11.191 C68.417,11.191 67.793,11.743 67.793,12.481 C67.793,13.231 68.429,13.729 69.209,13.729 C70.007,13.729 70.631,13.231 70.631,12.481 z M72.101,16.261 L72.515,15.745 C71.969,15.553 71.543,15.019 71.543,14.359 L71.543,14.125 L70.853,14.125 L70.853,14.359 C70.853,15.031 70.493,15.589 69.857,15.883 C70.013,16.039 70.157,16.201 70.313,16.363 C70.757,16.153 71.111,15.679 71.207,15.331 C71.327,15.673 71.765,16.117 72.101,16.261 z M71.339,10.903 L71.339,13.879 L72.041,13.879 L72.041,10.903 z M69.803,15.721 L70.235,15.247 C69.887,15.115 69.599,14.773 69.599,14.293 L69.599,14.143 L68.915,14.143 L68.915,14.311 C68.915,14.995 68.501,15.505 67.883,15.775 L68.297,16.285 C68.723,16.117 69.173,15.625 69.305,15.223 C69.389,15.415 69.629,15.637 69.803,15.721 z M69.953,12.475 C69.953,12.871 69.641,13.189 69.209,13.189 C68.777,13.189 68.471,12.883 68.471,12.475 C68.471,12.097 68.765,11.773 69.209,11.773 C69.677,11.773 69.953,12.085 69.953,12.475 z" fill="#FFFFFF"/>
    <path d="M77.645,14.101 L77.645,13.537 L72.815,13.537 L72.815,14.101 z M77.051,12.937 L77.051,12.379 L74.165,12.379 L74.165,11.077 L73.463,11.077 L73.463,12.937 z M77.087,16.105 L77.087,15.547 L74.129,15.547 L74.129,14.527 L73.433,14.527 L73.433,16.105 z" fill="#FFFFFF"/>
    <path d="M82.553,16.249 L82.553,10.903 L81.881,10.903 L81.881,16.249 z M80.807,13.411 L80.807,16.003 L81.461,16.003 L81.461,10.999 L80.807,10.999 L80.807,12.853 L79.889,12.853 L79.889,13.411 z M78.863,14.437 L78.863,12.091 L80.183,12.091 L80.183,11.539 L78.161,11.539 L78.161,14.989 L78.671,14.989 C79.289,14.989 80.045,14.953 80.447,14.851 L80.363,14.311 C80.009,14.395 79.517,14.437 78.863,14.437 z" fill="#FFFFFF"/>
    <path d="M89.045,10.903 L88.337,10.903 L88.337,14.779 L89.045,14.779 L89.045,12.985 L89.801,12.985 L89.801,12.403 L89.045,12.403 z M89.171,16.093 L89.171,15.535 L86.279,15.535 L86.279,14.383 L85.577,14.383 L85.577,16.093 z M84.953,12.643 C84.953,13.405 85.511,13.951 86.363,13.951 C87.221,13.951 87.773,13.405 87.773,12.643 C87.773,11.887 87.221,11.335 86.363,11.335 C85.511,11.335 84.953,11.887 84.953,12.643 z M85.667,12.643 C85.667,12.235 85.937,11.929 86.363,11.929 C86.795,11.929 87.065,12.235 87.065,12.643 C87.065,13.063 86.795,13.369 86.363,13.369 C85.937,13.369 85.667,13.063 85.667,12.643 z" fill="#FFFFFF"/>
    <path d="M94.883,15.583 L94.883,15.025 L92.807,15.025 L92.807,13.987 L94.307,13.987 L94.307,11.257 L93.605,11.257 L93.605,12.097 L91.331,12.097 L91.331,11.269 L90.635,11.269 L90.635,13.987 L92.105,13.987 L92.105,15.025 L90.053,15.025 L90.053,15.583 z M93.605,13.429 L91.331,13.429 L91.331,12.637 L93.605,12.637 z" fill="#FFFFFF"/>
    <path d="M99.659,14.779 L99.659,10.903 L98.963,10.903 L98.963,14.779 z M99.779,16.105 L99.779,15.553 L96.779,15.553 L96.779,14.395 L96.071,14.395 L96.071,16.105 z M95.411,12.619 C95.411,13.387 95.981,13.933 96.857,13.933 C97.739,13.933 98.303,13.387 98.303,12.619 C98.303,11.863 97.739,11.299 96.857,11.299 C95.981,11.299 95.411,11.863 95.411,12.619 z M96.131,12.619 C96.131,12.211 96.407,11.899 96.857,11.899 C97.319,11.899 97.589,12.211 97.589,12.619 C97.589,13.045 97.319,13.357 96.857,13.357 C96.407,13.357 96.131,13.045 96.131,12.619 z" fill="#FFFFFF"/>
    <path d="M104.609,10.903 L103.907,10.903 L103.907,16.249 L104.609,16.249 L104.609,13.501 L105.377,13.501 L105.377,12.919 L104.609,12.919 z M101.333,14.431 L101.333,11.959 L103.079,11.959 L103.079,11.395 L100.637,11.395 L100.637,15.007 L101.153,15.007 C102.197,15.007 103.007,14.959 103.523,14.827 C103.493,14.647 103.475,14.455 103.445,14.269 C102.839,14.407 102.095,14.431 101.333,14.431 z" fill="#FFFFFF"/>
    <path d="M108.311,13.855 L108.311,11.353 L105.833,11.353 L105.833,13.855 z M109.343,12.295 L109.343,12.919 L108.599,12.919 L108.599,13.471 L109.343,13.471 L109.343,14.779 L110.039,14.779 L110.039,10.903 L109.343,10.903 L109.343,11.743 L108.599,11.743 L108.599,12.295 z M110.147,16.105 L110.147,15.547 L107.219,15.547 L107.219,14.449 L106.523,14.449 L106.523,16.105 z M107.615,13.309 L106.529,13.309 L106.529,11.893 L107.615,11.893 z" fill="#FFFFFF"/>
    <path d="M111.791,14.851 L111.791,15.775 L112.733,15.775 L112.733,14.851 z M110.825,12.871 L111.707,12.871 Q111.707,12.709 111.743,12.568 Q111.779,12.427 111.854,12.322 Q111.929,12.217 112.046,12.154 Q112.163,12.091 112.325,12.091 Q112.565,12.091 112.7,12.223 Q112.835,12.355 112.835,12.631 Q112.841,12.793 112.778,12.901 Q112.715,13.009 112.613,13.099 Q112.511,13.189 112.391,13.279 Q112.271,13.369 112.163,13.492 Q112.055,13.615 111.974,13.789 Q111.893,13.963 111.875,14.221 L111.875,14.491 L112.685,14.491 L112.685,14.263 Q112.709,14.083 112.802,13.963 Q112.895,13.843 113.015,13.75 Q113.135,13.657 113.27,13.564 Q113.405,13.471 113.516,13.339 Q113.627,13.207 113.702,13.021 Q113.777,12.835 113.777,12.547 Q113.777,12.373 113.702,12.172 Q113.627,11.971 113.453,11.797 Q113.279,11.623 112.994,11.506 Q112.709,11.389 112.283,11.389 Q111.953,11.389 111.686,11.5 Q111.419,11.611 111.23,11.809 Q111.041,12.007 110.936,12.277 Q110.831,12.547 110.825,12.871 z" fill="#FFFFFF"/>
    <path d="M32.501,23.999 L32.501,18.653 L31.835,18.653 L31.835,20.759 L31.319,20.759 L31.319,18.749 L30.665,18.749 L30.665,23.753 L31.319,23.753 L31.319,21.323 L31.835,21.323 L31.835,23.999 z M30.449,22.427 C30.419,22.235 30.383,22.055 30.359,21.863 C30.029,21.959 29.405,22.001 28.883,22.001 L28.883,19.277 L28.193,19.277 L28.193,22.583 L28.673,22.583 C29.309,22.583 30.167,22.511 30.449,22.427 z" fill="#FFFFFF"/>
    <path d="M38.099,21.287 L38.099,20.705 L37.325,20.705 L37.325,18.653 L36.629,18.653 L36.629,23.999 L37.325,23.999 L37.325,21.287 z M35.921,19.199 L33.425,19.199 L33.425,19.781 L35.159,19.781 C35.063,20.849 34.265,21.971 33.101,22.505 L33.527,23.033 C35.165,22.145 35.873,20.813 35.921,19.199 z" fill="#FFFFFF"/>
    <path d="M40.703,21.977 L40.703,22.529 L42.101,22.529 C41.939,23.087 41.153,23.489 40.415,23.489 L40.751,24.035 C41.513,23.975 42.287,23.459 42.473,23.081 C42.683,23.453 43.481,23.981 44.195,24.047 L44.531,23.501 C43.817,23.495 43.031,23.063 42.875,22.529 L44.273,22.529 L44.273,21.977 z M40.121,20.129 L41.129,20.129 C41.003,20.717 40.547,21.089 39.893,21.305 C40.025,21.479 40.157,21.665 40.283,21.839 C40.811,21.677 41.345,21.221 41.537,20.741 C41.753,21.197 42.311,21.569 42.719,21.689 C42.839,21.509 42.953,21.329 43.067,21.149 C42.557,21.011 42.065,20.699 41.933,20.129 L42.941,20.129 L42.941,19.577 L40.121,19.577 z M44.921,20.549 L44.921,19.973 L44.183,19.973 L44.183,18.653 L43.487,18.653 L43.487,21.707 L44.183,21.707 L44.183,20.549 z M40.757,19.283 L42.311,19.283 L42.311,18.737 L40.757,18.737 z" fill="#FFFFFF"/>
    <path d="M50.027,21.851 L50.027,21.287 L45.197,21.287 L45.197,21.851 z M49.433,20.687 L49.433,20.129 L46.547,20.129 L46.547,18.827 L45.845,18.827 L45.845,20.687 z M49.469,23.855 L49.469,23.297 L46.511,23.297 L46.511,22.277 L45.815,22.277 L45.815,23.855 z" fill="#FFFFFF"/>
    <path d="M56.471,23.999 L56.471,18.653 L55.775,18.653 L55.775,23.999 z M52.205,20.933 C52.205,22.055 52.715,22.835 53.585,22.835 C54.461,22.835 54.971,22.049 54.971,20.933 C54.971,19.805 54.461,19.019 53.585,19.019 C52.715,19.019 52.205,19.805 52.205,20.933 z M54.299,20.933 C54.299,21.773 53.999,22.271 53.585,22.271 C53.183,22.271 52.889,21.773 52.889,20.933 C52.889,20.087 53.183,19.583 53.585,19.583 C53.999,19.583 54.299,20.087 54.299,20.933 z" fill="#FFFFFF"/>
    <path d="M59.597,21.671 L59.597,20.609 L60.077,20.609 L60.077,22.469 L60.743,22.469 L60.743,18.749 L60.077,18.749 L60.077,20.039 L59.597,20.039 L59.597,19.049 L58.895,19.049 L58.895,19.847 L58.139,19.847 L58.139,19.061 L57.431,19.061 L57.431,21.671 z M61.919,23.867 L61.919,23.309 L58.841,23.309 L58.841,22.151 L58.145,22.151 L58.145,23.867 z M61.787,22.613 L61.787,18.653 L61.121,18.653 L61.121,22.613 z M58.895,21.119 L58.139,21.119 L58.139,20.387 L58.895,20.387 z" fill="#FFFFFF"/>
    <path d="M66.533,20.777 L66.533,20.225 L63.749,20.225 L63.749,19.625 L66.659,19.625 L66.659,19.073 L63.053,19.073 L63.053,21.911 L66.713,21.911 L66.713,21.359 L63.749,21.359 L63.749,20.777 z M67.265,22.775 L62.435,22.775 L62.435,23.327 L67.265,23.327 z" fill="#FFFFFF"/>
    <path d="M72.575,21.287 L72.575,20.705 L71.801,20.705 L71.801,18.653 L71.105,18.653 L71.105,23.999 L71.801,23.999 L71.801,21.287 z M70.397,19.199 L67.901,19.199 L67.901,19.781 L69.635,19.781 C69.539,20.849 68.741,21.971 67.577,22.505 L68.003,23.033 C69.641,22.145 70.349,20.813 70.397,19.199 z" fill="#FFFFFF"/>
    <path d="M78.899,21.527 L78.899,18.653 L78.197,18.653 L78.197,19.829 L77.483,19.829 L77.483,20.393 L78.197,20.393 L78.197,21.527 z M74.513,20.123 C74.513,20.855 75.131,21.347 75.893,21.347 C76.691,21.347 77.273,20.837 77.273,20.123 C77.273,19.397 76.691,18.851 75.893,18.851 C75.101,18.851 74.513,19.409 74.513,20.123 z M75.197,20.117 C75.197,19.757 75.515,19.433 75.893,19.433 C76.325,19.433 76.595,19.751 76.595,20.117 C76.595,20.453 76.313,20.765 75.893,20.765 C75.491,20.765 75.197,20.477 75.197,20.117 z M76.943,23.927 L76.943,21.833 L76.289,21.833 L76.289,22.409 L75.689,22.409 L75.689,21.845 L75.029,21.845 L75.029,23.927 z M76.289,23.405 L75.689,23.405 L75.689,22.907 L76.289,22.907 z M79.349,23.441 C78.797,23.261 78.527,22.775 78.527,22.181 L78.527,21.779 L77.837,21.779 L77.837,22.181 C77.837,22.799 77.543,23.195 76.973,23.417 L77.357,23.969 C77.693,23.843 78.095,23.495 78.185,23.207 C78.305,23.561 78.719,23.873 78.977,23.969 z" fill="#FFFFFF"/>
    <path d="M83.849,18.653 L83.147,18.653 L83.147,23.999 L83.849,23.999 L83.849,21.251 L84.617,21.251 L84.617,20.669 L83.849,20.669 z M80.573,22.181 L80.573,19.709 L82.319,19.709 L82.319,19.145 L79.877,19.145 L79.877,22.757 L80.393,22.757 C81.437,22.757 82.247,22.709 82.763,22.577 C82.733,22.397 82.715,22.205 82.685,22.019 C82.079,22.157 81.335,22.181 80.573,22.181 z" fill="#FFFFFF"/>
    <path d="M87.551,21.605 L87.551,19.103 L85.073,19.103 L85.073,21.605 z M88.583,20.045 L88.583,20.669 L87.839,20.669 L87.839,21.221 L88.583,21.221 L88.583,22.529 L89.279,22.529 L89.279,18.653 L88.583,18.653 L88.583,19.493 L87.839,19.493 L87.839,20.045 z M89.387,23.855 L89.387,23.297 L86.459,23.297 L86.459,22.199 L85.763,22.199 L85.763,23.855 z M86.855,21.059 L85.769,21.059 L85.769,19.643 L86.855,19.643 z" fill="#FFFFFF"/>
    <path d="M91.031,22.601 L91.031,23.525 L91.973,23.525 L91.973,22.601 z M90.065,20.621 L90.947,20.621 Q90.947,20.459 90.983,20.318 Q91.019,20.177 91.094,20.072 Q91.169,19.967 91.286,19.904 Q91.403,19.841 91.565,19.841 Q91.805,19.841 91.94,19.973 Q92.075,20.105 92.075,20.381 Q92.081,20.543 92.018,20.651 Q91.955,20.759 91.853,20.849 Q91.751,20.939 91.631,21.029 Q91.511,21.119 91.403,21.242 Q91.295,21.365 91.214,21.539 Q91.133,21.713 91.115,21.971 L91.115,22.241 L91.925,22.241 L91.925,22.013 Q91.949,21.833 92.042,21.713 Q92.135,21.593 92.255,21.5 Q92.375,21.407 92.51,21.314 Q92.645,21.221 92.756,21.089 Q92.867,20.957 92.942,20.771 Q93.017,20.585 93.017,20.297 Q93.017,20.123 92.942,19.922 Q92.867,19.721 92.693,19.547 Q92.519,19.373 92.234,19.256 Q91.949,19.139 91.523,19.139 Q91.193,19.139 90.926,19.25 Q90.659,19.361 90.47,19.559 Q90.281,19.757 90.176,20.027 Q90.071,20.297 90.065,20.621 z" fill="#FFFFFF"/>
    <g>
      <path d="M329.367,6.12 L329.367,19.947 L294.953,19.947 L293.727,22.071 L292.128,24.839 L290.53,22.071 L289.304,19.947 L286.733,19.947 L286.733,6.12 L329.367,6.12 z" fill="#DFDFDF"/>
      <path d="M329.367,6.12 L329.367,19.947 L294.953,19.947 L293.727,22.071 L292.128,24.839 L290.53,22.071 L289.304,19.947 L286.733,19.947 L286.733,6.12 L329.367,6.12 z" fill-opacity="0" stroke="#000000" stroke-width="1"/>
    </g>
    <g>
      <path d="M270.443,37.035 L260.756,31.16 C259.613,30.468 258.945,29.482 259.262,28.958 L259.262,28.958 C259.58,28.435 260.763,28.572 261.905,29.265 L271.592,35.14 C272.734,35.832 273.403,36.818 273.086,37.342 L273.086,37.342 C272.768,37.865 271.585,37.728 270.443,37.035 z" fill="#9A7272"/>
      <path d="M270.443,37.035 L260.756,31.16 C259.613,30.468 258.945,29.482 259.262,28.958 L259.262,28.958 C259.58,28.435 260.763,28.572 261.905,29.265 L271.592,35.14 C272.734,35.832 273.403,36.818 273.086,37.342 L273.086,37.342 C272.768,37.865 271.585,37.728 270.443,37.035 z" fill-opacity="0" stroke="#000000" stroke-width="1"/>
    </g>
    <g>
      <path d="M225.603,34.649 L235.534,29.197 C236.705,28.555 237.893,28.469 238.188,29.005 L238.188,29.005 C238.483,29.542 237.772,30.498 236.601,31.141 L226.67,36.593 C225.499,37.235 224.311,37.321 224.016,36.785 L224.016,36.785 C223.722,36.248 224.432,35.292 225.603,34.649 z" fill="#9A7272"/>
      <path d="M225.603,34.649 L235.534,29.197 C236.705,28.555 237.893,28.469 238.188,29.005 L238.188,29.005 C238.483,29.542 237.772,30.498 236.601,31.141 L226.67,36.593 C225.499,37.235 224.311,37.321 224.016,36.785 L224.016,36.785 C223.722,36.248 224.432,35.292 225.603,34.649 z" fill-opacity="0" stroke="#000000" stroke-width="1"/>
    </g>
    <path d="M276.955,25.45 C277.203,25.45 277.404,24.518 277.404,23.368" fill-opacity="0" stroke="#000000" stroke-width="1" stroke-linecap="round"/>
    <path d="M279.509,27.433 C282.486,27.433 284.9,24.131 284.9,20.059" fill-opacity="0" stroke="#000000" stroke-width="1" stroke-linecap="round"/>
    <path d="M276.955,26.441 C279.035,26.441 280.721,24.621 280.721,22.377" fill-opacity="0" stroke="#000000" stroke-width="1" stroke-linecap="round"/>
    <path d="M280.721,28.074 C283.259,28.576 287.095,27.346 286.559,27.438" fill-opacity="0" stroke="#000000" stroke-width="1" stroke-linecap="round"/>
    <g>
      <path d="M273.224,25.45 C274.904,26.893 277.282,28.201 278.611,29.98 C280.582,32.331 283.046,34.942 286.353,35.126 C285.974,38.958 283.964,41.699 280.402,43.126 C281.263,44.119 281.327,45.52 281.418,46.762 L281.418,50.281 C281.418,53.479 279.521,56.072 277.179,56.072 C274.838,56.072 272.94,53.479 272.94,50.281 L272.94,46.762 C273.078,44.89 272.911,45.968 273.651,43.567 C269.632,42.146 267.248,38.722 267.033,34.512 C267.253,30.209 269.072,26.872 273.224,25.45 z" fill="#9A7272"/>
      <path d="M273.224,25.45 C274.904,26.893 277.282,28.201 278.611,29.98 C280.582,32.331 283.046,34.942 286.353,35.126 C285.974,38.958 283.964,41.699 280.402,43.126 C281.263,44.119 281.327,45.52 281.418,46.762 L281.418,50.281 C281.418,53.479 279.521,56.072 277.179,56.072 C274.838,56.072 272.94,53.479 272.94,50.281 L272.94,46.762 C273.078,44.89 272.911,45.968 273.651,43.567 C269.632,42.146 267.248,38.722 267.033,34.512 C267.253,30.209 269.072,26.872 273.224,25.45 z" fill-opacity="0" stroke="#000000" stroke-width="1"/>
    </g>
    <g>
      <path d="M276.709,24.839 C275.093,24.92 276.74,24.709 274.572,25.146 C276.41,26.458 277.166,28.298 278.611,29.98 C280.531,32.347 283.082,34.949 286.353,35.126 L286.385,34.512 C286.385,29.232 282.669,24.908 277.325,24.908 z" fill="#000000"/>
      <path d="M276.709,24.839 C275.093,24.92 276.74,24.709 274.572,25.146 C276.41,26.458 277.166,28.298 278.611,29.98 C280.531,32.347 283.082,34.949 286.353,35.126 L286.385,34.512 C286.385,29.232 282.669,24.908 277.325,24.908 z" fill-opacity="0" stroke="#000000" stroke-width="1"/>
    </g>
    <path d="M270.351,32.124 C271.251,32.124 271.981,31.403 271.981,30.513 C271.981,29.624 271.251,28.903 270.351,28.903 C269.451,28.903 268.721,29.624 268.721,30.513 C268.721,31.403 269.451,32.124 270.351,32.124 z" fill="#000000"/>
    <path d="M271.94,38.121 C271.94,38.121 269.745,38.544 267.32,36.687" fill-opacity="0" stroke="#000000" stroke-width="1" stroke-linecap="round"/>
    <path d="M275.188,25.72 C275.437,25.72 275.638,24.787 275.638,23.637" fill-opacity="0" stroke="#000000" stroke-width="1" stroke-linecap="round"/>
    <path d="M283.541,33.785 C285.965,33.785 287.093,33.552 287.93,33.239" fill-opacity="0" stroke="#000000" stroke-width="1" stroke-linecap="round"/>
    <path d="M284.235,31.081 C285.422,31.081 286.385,31.02 286.385,30.945" fill-opacity="0" stroke="#000000" stroke-width="1" stroke-linecap="round"/>
    <path d="M279.006,29.368 C280.766,29.368 282.193,24.928 282.193,19.45" fill-opacity="0" stroke="#000000" stroke-width="1" stroke-linecap="round"/>
    <path d="M279.509,29.367 C282.486,29.367 284.9,26.066 284.9,21.994" fill-opacity="0" stroke="#000000" stroke-width="1" stroke-linecap="round"/>
    <path d="M284.069,30.841 C286.15,30.841 287.836,29.022 287.836,26.778" fill-opacity="0" stroke="#000000" stroke-width="1" stroke-linecap="round"/>
    <path d="M278.066,25.344 C278.639,25.344 279.103,24.748 279.103,24.013" fill-opacity="0" stroke="#000000" stroke-width="1" stroke-linecap="round"/>
    <path d="M282.646,29.282 C285.184,29.783 289.019,28.554 288.484,28.645" fill-opacity="0" stroke="#000000" stroke-width="1" stroke-linecap="round"/>
    <path d="M283.921,32.691 C286.688,32.691 288.932,31.957 288.932,31.052" fill-opacity="0" stroke="#000000" stroke-width="1" stroke-linecap="round"/>
    <g>
      <path d="M219.171,5.387 L219.171,19.214 L216.659,19.214 L213.919,23.96 L211.179,19.214 L196.75,19.214 L196.75,5.387 L219.171,5.387 z" fill="#DFDFDF"/>
      <path d="M219.171,5.387 L219.171,19.214 L216.659,19.214 L213.919,23.96 L211.179,19.214 L196.75,19.214 L196.75,5.387 L219.171,5.387 z" fill-opacity="0" stroke="#000000" stroke-width="1"/>
    </g>
    <path d="M205.41,10.636 L205.41,7.762 L204.708,7.762 L204.708,8.938 L203.994,8.938 L203.994,9.502 L204.708,9.502 L204.708,10.636 z M201.024,9.232 C201.024,9.964 201.642,10.456 202.404,10.456 C203.202,10.456 203.784,9.946 203.784,9.232 C203.784,8.506 203.202,7.96 202.404,7.96 C201.612,7.96 201.024,8.518 201.024,9.232 z M201.708,9.226 C201.708,8.866 202.026,8.542 202.404,8.542 C202.836,8.542 203.106,8.86 203.106,9.226 C203.106,9.562 202.824,9.874 202.404,9.874 C202.002,9.874 201.708,9.586 201.708,9.226 z M203.454,13.036 L203.454,10.942 L202.8,10.942 L202.8,11.518 L202.2,11.518 L202.2,10.954 L201.54,10.954 L201.54,13.036 z M202.8,12.514 L202.2,12.514 L202.2,12.016 L202.8,12.016 z M205.86,12.55 C205.308,12.37 205.038,11.884 205.038,11.29 L205.038,10.888 L204.348,10.888 L204.348,11.29 C204.348,11.908 204.054,12.304 203.484,12.526 L203.868,13.078 C204.204,12.952 204.606,12.604 204.696,12.316 C204.816,12.67 205.23,12.982 205.488,13.078 z" fill="#4C4C4C"/>
    <path d="M210.726,11.002 L210.726,7.762 L210.06,7.762 L210.06,11.002 z M209.01,9.418 L209.01,10.792 L209.664,10.792 L209.664,7.858 L209.01,7.858 L209.01,8.86 L208.098,8.86 L208.098,9.418 z M208.644,10.492 C208.608,10.3 208.584,10.12 208.548,9.928 C208.224,10.03 207.636,10.072 207.108,10.072 L207.108,8.158 L206.412,8.158 L206.412,10.66 L206.898,10.66 C207.546,10.66 208.374,10.57 208.644,10.492 z M210.738,12.028 C210.738,11.362 210.024,10.942 208.866,10.942 C207.714,10.942 207.012,11.362 207.012,12.028 C207.012,12.67 207.714,13.096 208.866,13.096 C210.024,13.096 210.738,12.67 210.738,12.028 z M210.006,12.028 C210.006,12.34 209.574,12.538 208.866,12.538 C208.176,12.538 207.738,12.34 207.738,12.028 C207.738,11.704 208.176,11.5 208.866,11.5 C209.574,11.5 210.006,11.704 210.006,12.028 z" fill="#4C4C4C"/>
    <path d="M212.352,11.71 L212.352,12.634 L213.294,12.634 L213.294,11.71 z M211.386,9.73 L212.268,9.73 Q212.268,9.568 212.304,9.427 Q212.34,9.286 212.415,9.181 Q212.49,9.076 212.607,9.013 Q212.724,8.95 212.886,8.95 Q213.126,8.95 213.261,9.082 Q213.396,9.214 213.396,9.49 Q213.402,9.652 213.339,9.76 Q213.276,9.868 213.174,9.958 Q213.072,10.048 212.952,10.138 Q212.832,10.228 212.724,10.351 Q212.616,10.474 212.535,10.648 Q212.454,10.822 212.436,11.08 L212.436,11.35 L213.246,11.35 L213.246,11.122 Q213.27,10.942 213.363,10.822 Q213.456,10.702 213.576,10.609 Q213.696,10.516 213.831,10.423 Q213.966,10.33 214.077,10.198 Q214.188,10.066 214.263,9.88 Q214.338,9.694 214.338,9.406 Q214.338,9.232 214.263,9.031 Q214.188,8.83 214.014,8.656 Q213.84,8.482 213.555,8.365 Q213.27,8.248 212.844,8.248 Q212.514,8.248 212.247,8.359 Q211.98,8.47 211.791,8.668 Q211.602,8.866 211.497,9.136 Q211.392,9.406 211.386,9.73 z" fill="#4C4C4C"/>
    <g>
      <path d="M220.283,23.96 C225.563,23.96 229.843,28.241 229.843,33.52 C229.76,37.098 227.78,40.684 224.385,42.119 C225.365,43.172 225.493,44.656 225.594,46.018 L225.594,49.537 C225.594,52.735 223.696,55.328 221.355,55.328 C219.014,55.328 217.116,52.735 217.116,49.537 L217.116,46.018 C217.195,44.942 217.2,43.653 217.87,42.739 C213.527,41.839 210.933,37.704 210.722,33.52 C210.722,28.241 215.003,23.96 220.283,23.96 z" fill="#9A7272"/>
      <path d="M220.283,23.96 C225.563,23.96 229.843,28.241 229.843,33.52 C229.76,37.098 227.78,40.684 224.385,42.119 C225.365,43.172 225.493,44.656 225.594,46.018 L225.594,49.537 C225.594,52.735 223.696,55.328 221.355,55.328 C219.014,55.328 217.116,52.735 217.116,49.537 L217.116,46.018 C217.195,44.942 217.2,43.653 217.87,42.739 C213.527,41.839 210.933,37.704 210.722,33.52 C210.722,28.241 215.003,23.96 220.283,23.96 z" fill-opacity="0" stroke="#000000" stroke-width="1"/>
    </g>
    <g>
      <g>
        <g>
          <path d="M236.938,17.217 L243.27,17.217 C243.936,17.217 244.476,17.754 244.476,18.417 L244.476,34.89 C244.476,35.553 243.936,36.09 243.27,36.09 L236.938,36.09 C236.272,36.09 235.732,35.553 235.732,34.89 L235.732,18.417 C235.732,17.754 236.272,17.217 236.938,17.217 z" fill="#F0F0F0"/>
          <path d="M236.938,17.217 L243.27,17.217 C243.936,17.217 244.476,17.754 244.476,18.417 L244.476,34.89 C244.476,35.553 243.936,36.09 243.27,36.09 L236.938,36.09 C236.272,36.09 235.732,35.553 235.732,34.89 L235.732,18.417 C235.732,17.754 236.272,17.217 236.938,17.217 z" fill-opacity="0" stroke="#6A6A6A" stroke-width="2"/>
        </g>
        <g>
          <path d="M236.282,19.797 L243.926,19.797 L243.926,33.366 L236.282,33.366 z" fill="#FFFFFF"/>
          <path d="M236.282,19.797 L243.926,19.797 L243.926,33.366 L236.282,33.366 z" fill-opacity="0" stroke="#151515" stroke-width="0.5"/>
        </g>
        <g>
          <path d="M240.247,18.089 L240.247,18.089 C240.247,18.188 240.167,18.268 240.068,18.268 C239.969,18.268 239.889,18.188 239.889,18.089 C239.889,17.99 239.969,17.91 240.068,17.91 C240.167,17.91 240.247,17.99 240.247,18.089 C240.247,18.089 240.247,18.089 240.247,18.089 z" fill="#BFBFBF"/>
          <path d="M240.247,18.089 L240.247,18.089 C240.247,18.188 240.167,18.268 240.068,18.268 C239.969,18.268 239.889,18.188 239.889,18.089 C239.889,17.99 239.969,17.91 240.068,17.91 C240.167,17.91 240.247,17.99 240.247,18.089 C240.247,18.089 240.247,18.089 240.247,18.089 z" fill-opacity="0" stroke="#6A6A6A" stroke-width="1.25"/>
        </g>
        <g>
          <path d="M240.835,18.853 C240.835,18.939 240.791,19.009 240.736,19.009 L239.405,19.009 C239.35,19.009 239.306,18.939 239.306,18.853 L239.306,18.853 C239.306,18.768 239.35,18.698 239.405,18.698 L240.736,18.698 C240.791,18.698 240.835,18.768 240.835,18.853 L240.835,18.853 z" fill="#BFBFBF"/>
          <path d="M240.835,18.853 C240.835,18.939 240.791,19.009 240.736,19.009 L239.405,19.009 C239.35,19.009 239.306,18.939 239.306,18.853 L239.306,18.853 C239.306,18.768 239.35,18.698 239.405,18.698 L240.736,18.698 C240.791,18.698 240.835,18.768 240.835,18.853 L240.835,18.853 z" fill-opacity="0" stroke="#6A6A6A" stroke-width="1.25"/>
        </g>
        <g>
          <path d="M240.88,34.8 L240.88,34.8 C240.88,35.229 240.533,35.576 240.104,35.576 C239.675,35.576 239.327,35.229 239.327,34.8 C239.327,34.371 239.675,34.023 240.104,34.023 C240.533,34.023 240.88,34.371 240.88,34.8 C240.88,34.8 240.88,34.8 240.88,34.8 z" fill="#F0F0F0"/>
          <path d="M240.88,34.8 L240.88,34.8 C240.88,35.229 240.533,35.576 240.104,35.576 C239.675,35.576 239.327,35.229 239.327,34.8 C239.327,34.371 239.675,34.023 240.104,34.023 C240.533,34.023 240.88,34.371 240.88,34.8 C240.88,34.8 240.88,34.8 240.88,34.8 z" fill-opacity="0" stroke="#6A6A6A" stroke-width="1"/>
        </g>
        <g>
          <path d="M239.101,18.865 L239.101,18.865 C239.101,18.931 239.047,18.985 238.981,18.985 C238.915,18.985 238.862,18.931 238.862,18.865 C238.862,18.799 238.915,18.746 238.981,18.746 C239.047,18.746 239.101,18.799 239.101,18.865 C239.101,18.865 239.101,18.865 239.101,18.865 z" fill="#BFBFBF"/>
          <path d="M239.101,18.865 L239.101,18.865 C239.101,18.931 239.047,18.985 238.981,18.985 C238.915,18.985 238.862,18.931 238.862,18.865 C238.862,18.799 238.915,18.746 238.981,18.746 C239.047,18.746 239.101,18.799 239.101,18.865 C239.101,18.865 239.101,18.865 239.101,18.865 z" fill-opacity="0" stroke="#6A6A6A" stroke-width="1.25"/>
        </g>
      </g>
      <g>
        <path d="M235.782,19.329 L243.426,19.329 L243.426,20.858 L235.782,20.858 z" fill="#FFFFFF"/>
        <text transform="matrix(1, 0, 0, 1, 239.616, 20.356)"/>
        <g>
          <path d="M238.381,19.635 L238.406,19.61 C238.316,19.52 238.168,19.523 238.075,19.616 L238.1,19.641 C238.142,19.609 238.192,19.592 238.241,19.591 C238.291,19.59 238.34,19.605 238.381,19.635 z" fill="#000000"/>
          <path d="M238.191,19.741 L238.239,19.788 L238.29,19.737 C238.257,19.731 238.224,19.732 238.191,19.741 z" fill="#000000"/>
          <path d="M238.127,19.673 L238.159,19.705 C238.211,19.684 238.269,19.683 238.32,19.7 L238.353,19.667 C238.284,19.631 238.198,19.633 238.127,19.673 z" fill="#000000"/>
        </g>
        <text transform="matrix(1, 0, 0, 1, 239.616, 19.699)"/>
        <text transform="matrix(1, 0, 0, 1, 237.43, 19.723)"/>
        <path d="M235.997,19.759 C235.957,19.759 235.925,19.727 235.925,19.687 C235.925,19.648 235.957,19.616 235.997,19.616 C236.036,19.616 236.068,19.648 236.068,19.687 C236.068,19.727 236.036,19.759 235.997,19.759 z" fill="#000000"/>
        <path d="M236.164,19.759 C236.124,19.759 236.092,19.727 236.092,19.687 C236.092,19.648 236.124,19.616 236.164,19.616 C236.203,19.616 236.235,19.648 236.235,19.687 C236.235,19.727 236.203,19.759 236.164,19.759 z" fill="#000000"/>
        <path d="M236.331,19.759 C236.291,19.759 236.259,19.727 236.259,19.687 C236.259,19.648 236.291,19.616 236.331,19.616 C236.371,19.616 236.403,19.648 236.403,19.687 C236.403,19.727 236.371,19.759 236.331,19.759 z" fill="#000000"/>
        <path d="M236.498,19.759 C236.459,19.759 236.427,19.727 236.427,19.687 C236.427,19.648 236.459,19.616 236.498,19.616 C236.538,19.616 236.57,19.648 236.57,19.687 C236.57,19.727 236.538,19.759 236.498,19.759 z" fill="#000000"/>
        <path d="M236.665,19.616 C236.705,19.616 236.737,19.648 236.737,19.687 C236.737,19.727 236.705,19.759 236.665,19.759 C236.626,19.759 236.594,19.727 236.594,19.687 C236.594,19.648 236.626,19.616 236.665,19.616 z M236.665,19.64 C236.639,19.64 236.618,19.661 236.618,19.687 C236.618,19.714 236.639,19.735 236.665,19.735 C236.692,19.735 236.713,19.714 236.713,19.687 C236.713,19.661 236.692,19.64 236.665,19.64 z" fill="#000000"/>
        <text transform="matrix(1, 0, 0, 1, 242.065, 19.699)"/>
        <path d="M241.516,19.496 C241.573,19.553 241.536,19.516 241.628,19.608 C241.597,19.633 241.618,19.616 241.565,19.658 C241.586,19.675 241.607,19.692 241.628,19.708 C241.554,19.783 241.591,19.746 241.516,19.82 L241.516,19.697 L241.441,19.758 L241.42,19.731 L241.51,19.658 L241.42,19.586 L241.441,19.559 L241.516,19.619 z M241.551,19.579 L241.551,19.626 L241.577,19.605 z M241.551,19.691 L241.551,19.737 L241.577,19.711 z" fill="#818181"/>
        <path d="M243.243,19.52 L243.14,19.692 L243.208,19.692 L243.174,19.83 L243.277,19.658 L243.208,19.658 L243.243,19.52 z" fill="#000000"/>
        <path d="M243.02,19.616 L243.052,19.616 C243.061,19.616 243.068,19.63 243.068,19.648 L243.068,19.679 C243.068,19.697 243.061,19.711 243.052,19.711 L243.02,19.711 z" fill="#000000"/>
        <path d="M242.986,19.544 C243.005,19.544 243.02,19.561 243.02,19.582 L243.02,19.745 C243.02,19.766 243.005,19.783 242.986,19.783 L242.553,19.783 C242.534,19.783 242.518,19.766 242.518,19.745 L242.518,19.582 C242.518,19.561 242.534,19.544 242.553,19.544 z" fill="#000000"/>
        <path d="M243.426,20.834 L243.426,20.858 L235.782,20.858 L235.782,20.834 z" fill="#000000" fill-opacity="0.2"/>
      </g>
      <path d="M242.813,20.188 L243.133,20.188 L243.133,20.277 L243.135,20.277 L243.054,20.418 L243.015,20.484 L243.015,20.682 L242.93,20.682 L242.93,20.484 L242.811,20.277 L242.813,20.277 L242.813,20.188 z" fill="#007AFF"/>
      <path d="M236.58,20.688 L237.169,20.688" fill-opacity="0" stroke="#007AFF" stroke-width="3"/>
      <path d="M236.58,20.869 L237.169,20.869" fill-opacity="0" stroke="#007AFF" stroke-width="3"/>
      <path d="M236.58,21.049 L237.169,21.049" fill-opacity="0" stroke="#007AFF" stroke-width="3"/>
      <path d="M235.781,20.859 L243.426,20.859 L243.426,23.729 L235.781,23.729 L235.781,20.859 z" fill="#007AFF"/>
      <path d="M235.781,23.98 L243.426,23.98 L243.426,26.851 L235.781,26.851 L235.781,23.98 z" fill="#007AFF"/>
      <path d="M235.781,27.102 L243.426,27.102 L243.426,29.972 L235.781,29.972 L235.781,27.102 z" fill="#007AFF"/>
      <path d="M235.781,30.223 L243.426,30.223 L243.426,33.094 L235.781,33.094 L235.781,30.223 z" fill="#007AFF"/>
    </g>
    <path d="M226.704,31.174 C225.815,31.174 225.094,30.453 225.094,29.564 C225.094,28.674 225.815,27.953 226.704,27.953 C227.594,27.953 228.315,28.674 228.315,29.564 C228.315,30.453 227.594,31.174 226.704,31.174 z" fill="#000000"/>
    <path d="M226.586,36.306 C226.586,36.306 227.56,36.765 229.604,35.136" fill-opacity="0" stroke="#000000" stroke-width="1" stroke-linecap="round"/>
    <g>
      <path d="M223.356,42.033 L236.489,34.824 C238.037,33.974 239.532,33.72 239.826,34.256 L239.826,34.256 C240.121,34.793 239.104,35.917 237.556,36.767 L224.423,43.976 C222.875,44.826 221.38,45.081 221.086,44.544 L221.086,44.544 C220.791,44.007 221.808,42.883 223.356,42.033 z" fill="#9A7272"/>
      <path d="M223.356,42.033 L236.489,34.824 C238.037,33.974 239.532,33.72 239.826,34.256 L239.826,34.256 C240.121,34.793 239.104,35.917 237.556,36.767 L224.423,43.976 C222.875,44.826 221.38,45.081 221.086,44.544 L221.086,44.544 C220.791,44.007 221.808,42.883 223.356,42.033 z" fill-opacity="0" stroke="#000000" stroke-width="1"/>
    </g>
    <path d="M293.288,10.94 L293.288,12.782 L293.984,12.782 L293.984,8.906 L293.288,8.906 L293.288,10.376 L292.538,10.376 L292.538,10.94 z M294.098,14.108 L294.098,13.556 L291.17,13.556 L291.17,12.416 L290.468,12.416 L290.468,14.108 z M292.268,11.906 L292.268,9.344 L289.778,9.344 L289.778,11.906 z M291.584,11.36 L290.48,11.36 L290.48,9.884 L291.584,9.884 z" fill="#4C4C4C"/>
    <path d="M298.046,12.626 C297.242,12.188 296.726,11.426 296.726,10.298 L296.726,10.028 L297.764,10.028 L297.764,9.452 L294.92,9.452 L294.92,10.028 L295.994,10.028 L295.994,10.304 C295.994,11.426 295.532,12.242 294.638,12.734 L295.076,13.25 C295.7,12.95 296.234,12.23 296.366,11.69 C296.522,12.206 297.164,12.89 297.65,13.142 z M299.18,14.252 L299.18,8.906 L298.478,8.906 L298.478,10.748 L297.578,10.748 L297.578,11.342 L298.478,11.342 L298.478,14.252 z" fill="#4C4C4C"/>
    <path d="M302.15,9.932 C302.15,10.442 302.696,10.808 303.668,10.88 L303.668,11.168 L301.616,11.168 L301.616,11.726 L306.446,11.726 L306.446,11.168 L304.37,11.168 L304.37,10.88 C305.366,10.814 305.93,10.454 305.93,9.932 C305.93,9.362 305.24,8.978 304.04,8.978 C302.834,8.978 302.15,9.362 302.15,9.932 z M306.002,14.228 L306.002,13.658 L302.93,13.658 L302.93,13.364 L305.81,13.364 L305.81,12.02 L302.198,12.02 L302.198,12.572 L305.114,12.572 L305.114,12.872 L302.234,12.872 L302.234,14.228 z M302.876,9.932 C302.876,9.692 303.302,9.5 304.04,9.5 C304.778,9.5 305.21,9.692 305.21,9.932 C305.21,10.172 304.778,10.364 304.04,10.364 C303.302,10.364 302.876,10.172 302.876,9.932 z" fill="#4C4C4C"/>
    <path d="M309.674,12.908 L309.596,12.344 C308.906,12.476 308.204,12.482 307.706,12.482 L307.706,11.372 L309.314,11.372 L309.314,9.362 L306.998,9.362 L306.998,9.92 L308.612,9.92 L308.612,10.814 L306.998,10.814 L306.998,13.052 C307.19,13.052 307.376,13.058 307.562,13.058 C308.474,13.058 309.116,13.016 309.674,12.908 z M309.662,12.104 L310.526,12.104 L310.526,14.252 L311.222,14.252 L311.222,8.906 L310.526,8.906 L310.526,10.16 L309.662,10.16 L309.662,10.73 L310.526,10.73 L310.526,11.54 L309.662,11.54 z" fill="#4C4C4C"/>
    <path d="M312.038,11.186 C312.038,12.308 312.554,13.088 313.424,13.088 C314.3,13.088 314.81,12.302 314.81,11.186 C314.81,10.058 314.3,9.272 313.424,9.272 C312.554,9.272 312.038,10.058 312.038,11.186 z M316.922,10.16 L316.172,10.16 L316.172,8.906 L315.47,8.906 L315.47,14.252 L316.172,14.252 L316.172,12.404 L316.922,12.404 L316.922,11.822 L316.172,11.822 L316.172,10.742 L316.922,10.742 z M314.138,11.186 C314.138,12.026 313.838,12.524 313.424,12.524 C313.022,12.524 312.722,12.026 312.722,11.186 C312.722,10.34 313.022,9.836 313.424,9.836 C313.838,9.836 314.138,10.34 314.138,11.186 z" fill="#4C4C4C"/>
    <path d="M321.644,13.178 C321.644,12.512 320.972,12.11 319.802,12.11 C318.65,12.11 317.984,12.512 317.984,13.178 C317.984,13.832 318.65,14.246 319.802,14.246 C320.972,14.246 321.644,13.832 321.644,13.178 z M317.426,9.836 L318.494,9.836 C318.458,10.604 317.948,11.174 317.21,11.444 L317.618,11.99 C318.14,11.816 318.71,11.312 318.866,10.79 C319.1,11.282 319.622,11.678 320.03,11.84 L320.42,11.282 C319.826,11.09 319.286,10.592 319.22,9.836 L320.246,9.836 L320.246,9.278 L317.426,9.278 z M321.608,12.086 L321.608,8.906 L320.906,8.906 L320.906,12.086 z M319.802,12.668 C320.522,12.668 320.918,12.86 320.918,13.178 C320.918,13.502 320.522,13.682 319.802,13.682 C319.112,13.682 318.698,13.502 318.698,13.178 C318.698,12.86 319.112,12.668 319.802,12.668 z" fill="#4C4C4C"/>
    <g>
      <g>
        <g>
          <path d="M255.191,21.51 L261.524,21.51 C262.19,21.51 262.729,22.047 262.729,22.71 L262.729,39.183 C262.729,39.846 262.19,40.383 261.524,40.383 L255.191,40.383 C254.525,40.383 253.986,39.846 253.986,39.183 L253.986,22.71 C253.986,22.047 254.525,21.51 255.191,21.51 z" fill="#F0F0F0"/>
          <path d="M255.191,21.51 L261.524,21.51 C262.19,21.51 262.729,22.047 262.729,22.71 L262.729,39.183 C262.729,39.846 262.19,40.383 261.524,40.383 L255.191,40.383 C254.525,40.383 253.986,39.846 253.986,39.183 L253.986,22.71 C253.986,22.047 254.525,21.51 255.191,21.51 z" fill-opacity="0" stroke="#6A6A6A" stroke-width="2"/>
        </g>
        <g>
          <path d="M254.535,24.09 L262.18,24.09 L262.18,37.659 L254.535,37.659 z" fill="#FFFFFF"/>
          <path d="M254.535,24.09 L262.18,24.09 L262.18,37.659 L254.535,37.659 z" fill-opacity="0" stroke="#151515" stroke-width="0.5"/>
        </g>
        <g>
          <path d="M258.501,22.382 L258.501,22.382 C258.501,22.481 258.421,22.561 258.322,22.561 C258.223,22.561 258.142,22.481 258.142,22.382 C258.142,22.283 258.223,22.203 258.322,22.203 C258.421,22.203 258.501,22.283 258.501,22.382 C258.501,22.382 258.501,22.382 258.501,22.382 z" fill="#BFBFBF"/>
          <path d="M258.501,22.382 L258.501,22.382 C258.501,22.481 258.421,22.561 258.322,22.561 C258.223,22.561 258.142,22.481 258.142,22.382 C258.142,22.283 258.223,22.203 258.322,22.203 C258.421,22.203 258.501,22.283 258.501,22.382 C258.501,22.382 258.501,22.382 258.501,22.382 z" fill-opacity="0" stroke="#6A6A6A" stroke-width="1.25"/>
        </g>
        <g>
          <path d="M259.089,23.146 C259.089,23.232 259.044,23.302 258.989,23.302 L257.659,23.302 C257.604,23.302 257.56,23.232 257.56,23.146 L257.56,23.146 C257.56,23.061 257.604,22.991 257.659,22.991 L258.989,22.991 C259.044,22.991 259.089,23.061 259.089,23.146 L259.089,23.146 z" fill="#BFBFBF"/>
          <path d="M259.089,23.146 C259.089,23.232 259.044,23.302 258.989,23.302 L257.659,23.302 C257.604,23.302 257.56,23.232 257.56,23.146 L257.56,23.146 C257.56,23.061 257.604,22.991 257.659,22.991 L258.989,22.991 C259.044,22.991 259.089,23.061 259.089,23.146 L259.089,23.146 z" fill-opacity="0" stroke="#6A6A6A" stroke-width="1.25"/>
        </g>
        <g>
          <path d="M259.134,39.093 L259.134,39.093 C259.134,39.522 258.786,39.869 258.357,39.869 C257.929,39.869 257.581,39.522 257.581,39.093 C257.581,38.664 257.929,38.316 258.357,38.316 C258.786,38.316 259.134,38.664 259.134,39.093 C259.134,39.093 259.134,39.093 259.134,39.093 z" fill="#F0F0F0"/>
          <path d="M259.134,39.093 L259.134,39.093 C259.134,39.522 258.786,39.869 258.357,39.869 C257.929,39.869 257.581,39.522 257.581,39.093 C257.581,38.664 257.929,38.316 258.357,38.316 C258.786,38.316 259.134,38.664 259.134,39.093 C259.134,39.093 259.134,39.093 259.134,39.093 z" fill-opacity="0" stroke="#6A6A6A" stroke-width="1"/>
        </g>
        <g>
          <path d="M257.354,23.158 L257.354,23.158 C257.354,23.224 257.301,23.278 257.235,23.278 C257.169,23.278 257.115,23.224 257.115,23.158 C257.115,23.092 257.169,23.039 257.235,23.039 C257.301,23.039 257.354,23.092 257.354,23.158 C257.354,23.158 257.354,23.158 257.354,23.158 z" fill="#BFBFBF"/>
          <path d="M257.354,23.158 L257.354,23.158 C257.354,23.224 257.301,23.278 257.235,23.278 C257.169,23.278 257.115,23.224 257.115,23.158 C257.115,23.092 257.169,23.039 257.235,23.039 C257.301,23.039 257.354,23.092 257.354,23.158 C257.354,23.158 257.354,23.158 257.354,23.158 z" fill-opacity="0" stroke="#6A6A6A" stroke-width="1.25"/>
        </g>
      </g>
      <g>
        <path d="M254.035,23.622 L261.68,23.622 L261.68,25.151 L254.035,25.151 z" fill="#FFFFFF"/>
        <text transform="matrix(1, 0, 0, 1, 257.869, 24.649)"/>
        <g>
          <path d="M256.635,23.928 L256.66,23.902 C256.57,23.813 256.422,23.815 256.329,23.909 L256.354,23.934 C256.396,23.902 256.446,23.885 256.495,23.884 C256.545,23.883 256.594,23.897 256.635,23.928 z" fill="#000000"/>
          <path d="M256.445,24.033 L256.493,24.081 L256.544,24.03 C256.511,24.024 256.478,24.025 256.445,24.033 z" fill="#000000"/>
          <path d="M256.381,23.966 L256.413,23.998 C256.465,23.977 256.523,23.975 256.575,23.993 L256.607,23.96 C256.538,23.923 256.452,23.925 256.381,23.966 z" fill="#000000"/>
        </g>
        <text transform="matrix(1, 0, 0, 1, 257.869, 23.992)"/>
        <text transform="matrix(1, 0, 0, 1, 255.683, 24.016)"/>
        <path d="M254.25,24.052 C254.211,24.052 254.178,24.02 254.178,23.98 C254.178,23.941 254.211,23.908 254.25,23.908 C254.29,23.908 254.322,23.941 254.322,23.98 C254.322,24.02 254.29,24.052 254.25,24.052 z" fill="#000000"/>
        <path d="M254.417,24.052 C254.378,24.052 254.346,24.02 254.346,23.98 C254.346,23.941 254.378,23.908 254.417,23.908 C254.457,23.908 254.489,23.941 254.489,23.98 C254.489,24.02 254.457,24.052 254.417,24.052 z" fill="#000000"/>
        <path d="M254.585,24.052 C254.545,24.052 254.513,24.02 254.513,23.98 C254.513,23.941 254.545,23.908 254.585,23.908 C254.624,23.908 254.656,23.941 254.656,23.98 C254.656,24.02 254.624,24.052 254.585,24.052 z" fill="#000000"/>
        <path d="M254.752,24.052 C254.712,24.052 254.68,24.02 254.68,23.98 C254.68,23.941 254.712,23.908 254.752,23.908 C254.791,23.908 254.823,23.941 254.823,23.98 C254.823,24.02 254.791,24.052 254.752,24.052 z" fill="#000000"/>
        <path d="M254.919,23.908 C254.959,23.908 254.991,23.941 254.991,23.98 C254.991,24.02 254.959,24.052 254.919,24.052 C254.879,24.052 254.847,24.02 254.847,23.98 C254.847,23.941 254.879,23.908 254.919,23.908 z M254.919,23.932 C254.893,23.932 254.871,23.954 254.871,23.98 C254.871,24.007 254.893,24.028 254.919,24.028 C254.945,24.028 254.967,24.007 254.967,23.98 C254.967,23.954 254.945,23.932 254.919,23.932 z" fill="#000000"/>
        <text transform="matrix(1, 0, 0, 1, 260.318, 23.992)"/>
        <path d="M259.77,23.789 C259.827,23.846 259.789,23.809 259.882,23.901 C259.851,23.926 259.872,23.909 259.819,23.951 C259.84,23.968 259.861,23.984 259.882,24.001 C259.807,24.076 259.844,24.038 259.77,24.113 L259.77,23.99 L259.695,24.05 L259.673,24.024 L259.764,23.951 L259.673,23.878 L259.695,23.852 L259.77,23.912 z M259.804,23.872 L259.804,23.919 L259.83,23.898 z M259.804,23.983 L259.804,24.03 L259.83,24.004 z" fill="#818181"/>
        <path d="M261.496,23.813 L261.393,23.985 L261.462,23.985 L261.428,24.123 L261.531,23.951 L261.462,23.951 L261.496,23.813 z" fill="#000000"/>
        <path d="M261.274,23.908 L261.306,23.908 C261.314,23.908 261.321,23.923 261.321,23.94 L261.321,23.972 C261.321,23.99 261.314,24.004 261.306,24.004 L261.274,24.004 z" fill="#000000"/>
        <path d="M261.24,23.837 C261.259,23.837 261.274,23.854 261.274,23.874 L261.274,24.038 C261.274,24.059 261.259,24.076 261.24,24.076 L260.806,24.076 C260.787,24.076 260.772,24.059 260.772,24.038 L260.772,23.874 C260.772,23.854 260.787,23.837 260.806,23.837 z" fill="#000000"/>
        <path d="M261.68,25.127 L261.68,25.151 L254.035,25.151 L254.035,25.127 z" fill="#000000" fill-opacity="0.2"/>
      </g>
      <path d="M261.066,24.481 L261.386,24.481 L261.386,24.57 L261.388,24.57 L261.307,24.71 L261.269,24.777 L261.269,24.975 L261.184,24.975 L261.184,24.777 L261.064,24.57 L261.066,24.57 L261.066,24.481 z" fill="#007AFF"/>
      <path d="M254.833,24.981 L255.423,24.981" fill-opacity="0" stroke="#007AFF" stroke-width="3"/>
      <path d="M254.833,25.162 L255.423,25.162" fill-opacity="0" stroke="#007AFF" stroke-width="3"/>
      <path d="M254.833,25.342 L255.423,25.342" fill-opacity="0" stroke="#007AFF" stroke-width="3"/>
      <path d="M254.034,25.151 L261.679,25.151 L261.679,28.022 L254.034,28.022 L254.034,25.151 z" fill="#007AFF"/>
      <path d="M254.034,28.273 L261.679,28.273 L261.679,31.144 L254.034,31.144 L254.034,28.273 z" fill="#007AFF"/>
      <path d="M254.034,31.395 L261.679,31.395 L261.679,34.265 L254.034,34.265 L254.034,31.395 z" fill="#007AFF"/>
      <path d="M254.034,34.516 L261.679,34.516 L261.679,37.387 L254.034,37.387 L254.034,34.516 z" fill="#007AFF"/>
    </g>
    <g>
      <path d="M273.184,45.593 L260.374,37.825 C258.864,36.909 257.896,35.742 258.214,35.218 L258.214,35.218 C258.531,34.695 260.013,35.013 261.524,35.929 L274.333,43.698 C275.844,44.614 276.811,45.781 276.493,46.304 L276.493,46.304 C276.176,46.827 274.694,46.509 273.184,45.593 z" fill="#9A7272"/>
      <path d="M273.184,45.593 L260.374,37.825 C258.864,36.909 257.896,35.742 258.214,35.218 L258.214,35.218 C258.531,34.695 260.013,35.013 261.524,35.929 L274.333,43.698 C275.844,44.614 276.811,45.781 276.493,46.304 L276.493,46.304 C276.176,46.827 274.694,46.509 273.184,45.593 z" fill-opacity="0" stroke="#000000" stroke-width="1"/>
    </g>
  </g>
</svg>
